<svg xmlns="http://www.w3.org/2000/svg" width="36" height="36" viewBox="0 0 36 36">
  <g id="export" transform="translate(-972 -775)">
    <circle id="Ellipse_19" data-name="Ellipse 19" cx="18" cy="18" r="18" transform="translate(972 775)" fill="#f3f3f3" opacity="0.44"/>
    <g id="export-2" data-name="export" transform="translate(981 756.19)">
      <path id="Path_89" data-name="Path 89" d="M235.037,260.949c0-.007,0-.014,0-.022,0-.024-.011-.048-.018-.072l0-.009c-.007-.024-.016-.048-.025-.071l0-.008c-.009-.022-.02-.043-.03-.065l-.006-.011c-.01-.019-.022-.038-.034-.057l-.009-.015c-.012-.018-.025-.034-.038-.051l-.012-.016c-.018-.022-.036-.042-.056-.062h0l-2.144-2.144a.858.858,0,1,0-1.213,1.213l.68.68h-8.049a.858.858,0,1,0,0,1.715h8.049l-.68.68a.858.858,0,1,0,1.213,1.213L234.8,261.7l0,0q.028-.028.054-.059l.015-.02c.012-.016.024-.031.035-.047l.011-.018c.011-.018.022-.035.032-.054l.006-.013c.011-.021.021-.041.03-.062l0-.01c.009-.023.018-.046.025-.069l0-.01c.007-.023.013-.047.018-.071,0-.007,0-.015,0-.023s.007-.04.009-.06,0-.057,0-.086,0-.057,0-.086S235.041,260.97,235.037,260.949Z" transform="translate(-214.068 -222.765)" fill="#db3236"/>
      <path id="Path_90" data-name="Path 90" d="M217.069,31.925h0Z" transform="translate(-208.172 -5.863)" fill="#d6d5d8"/>
      <path id="Path_91" data-name="Path 91" d="M13.722,39.189H10.005a.858.858,0,1,1,0-1.715h5.431V32.979a.857.857,0,0,1-.857.835H8.29a.858.858,0,0,1-.858-.858V26.668a.856.856,0,0,1,.871-.857H.858A.858.858,0,0,0,0,26.668V43.82a.858.858,0,0,0,.858.858H14.579a.858.858,0,0,0,.858-.858V39.189H13.722Z" transform="translate(0 0)" fill="#e0e0e2"/>
      <path id="Path_92" data-name="Path 92" d="M181.362,26.682v6.289a.858.858,0,0,0,.858.858h6.29a.857.857,0,0,0,.857-.836c0-.007,0-.015,0-.022a.853.853,0,0,0-.195-.543l0,0q-.024-.029-.05-.055l-.007-.007-.023-.023-6.263-6.263h0c-.017-.017-.036-.034-.055-.05l-.018-.014-.042-.031-.022-.015-.046-.028-.019-.011c-.021-.011-.042-.021-.063-.03l-.027-.011-.043-.016-.031-.01-.049-.013-.023-.006c-.024,0-.048-.008-.072-.011l-.023,0-.059,0a.856.856,0,0,0-.871.857Z" transform="translate(-173.929 -0.015)" fill="#c6c5ca"/>
    </g>
  </g>
</svg>
